<svg id="visual" viewBox="0 0 900 300" width="900" height="300" xmlns="http://www.w3.org/2000/svg" xmlns:xlink="http://www.w3.org/1999/xlink" version="1.1"><rect x="0" y="0" width="900" height="300" fill="#0C1421"></rect><path d="M0 112L21.5 112.8C43 113.7 86 115.3 128.8 121.7C171.7 128 214.3 139 257.2 135.8C300 132.7 343 115.3 385.8 110.3C428.7 105.3 471.3 112.7 514.2 119.5C557 126.3 600 132.7 642.8 129.5C685.7 126.3 728.3 113.7 771.2 108.3C814 103 857 105 878.5 106L900 107L900 301L878.5 301C857 301 814 301 771.2 301C728.3 301 685.7 301 642.8 301C600 301 557 301 514.2 301C471.3 301 428.7 301 385.8 301C343 301 300 301 257.2 301C214.3 301 171.7 301 128.8 301C86 301 43 301 21.5 301L0 301Z" fill="#3458d3"></path><path d="M0 147L21.5 144.3C43 141.7 86 136.3 128.8 137C171.7 137.7 214.3 144.3 257.2 149.3C300 154.3 343 157.7 385.8 153.3C428.7 149 471.3 137 514.2 131.5C557 126 600 127 642.8 127.3C685.7 127.7 728.3 127.3 771.2 130.7C814 134 857 141 878.5 144.5L900 148L900 301L878.5 301C857 301 814 301 771.2 301C728.3 301 685.7 301 642.8 301C600 301 557 301 514.2 301C471.3 301 428.7 301 385.8 301C343 301 300 301 257.2 301C214.3 301 171.7 301 128.8 301C86 301 43 301 21.5 301L0 301Z" fill="#1f50b7"></path><path d="M0 164L21.5 163.8C43 163.7 86 163.3 128.8 168C171.7 172.7 214.3 182.3 257.2 188.7C300 195 343 198 385.8 197.7C428.7 197.3 471.3 193.7 514.2 187.5C557 181.3 600 172.7 642.8 169C685.7 165.3 728.3 166.7 771.2 170.8C814 175 857 182 878.5 185.5L900 189L900 301L878.5 301C857 301 814 301 771.2 301C728.3 301 685.7 301 642.8 301C600 301 557 301 514.2 301C471.3 301 428.7 301 385.8 301C343 301 300 301 257.2 301C214.3 301 171.7 301 128.8 301C86 301 43 301 21.5 301L0 301Z" fill="#0e479b"></path><path d="M0 176L21.5 182.2C43 188.3 86 200.7 128.8 208.7C171.7 216.7 214.3 220.3 257.2 220.3C300 220.3 343 216.7 385.8 209.5C428.7 202.3 471.3 191.7 514.2 193.8C557 196 600 211 642.8 215C685.7 219 728.3 212 771.2 212.2C814 212.3 857 219.7 878.5 223.3L900 227L900 301L878.5 301C857 301 814 301 771.2 301C728.3 301 685.7 301 642.8 301C600 301 557 301 514.2 301C471.3 301 428.7 301 385.8 301C343 301 300 301 257.2 301C214.3 301 171.7 301 128.8 301C86 301 43 301 21.5 301L0 301Z" fill="#093d7f"></path><path d="M0 205L21.5 207.8C43 210.7 86 216.3 128.8 219.2C171.7 222 214.3 222 257.2 221.7C300 221.3 343 220.7 385.8 217.5C428.7 214.3 471.3 208.7 514.2 209.7C557 210.7 600 218.3 642.8 219.2C685.7 220 728.3 214 771.2 210.7C814 207.3 857 206.7 878.5 206.3L900 206L900 301L878.5 301C857 301 814 301 771.2 301C728.3 301 685.7 301 642.8 301C600 301 557 301 514.2 301C471.3 301 428.7 301 385.8 301C343 301 300 301 257.2 301C214.3 301 171.7 301 128.8 301C86 301 43 301 21.5 301L0 301Z" fill="#0d3364"></path><path d="M0 260L21.5 260.7C43 261.3 86 262.7 128.8 258.3C171.7 254 214.3 244 257.2 240C300 236 343 238 385.8 243C428.7 248 471.3 256 514.2 259.3C557 262.7 600 261.3 642.8 259.3C685.7 257.3 728.3 254.7 771.2 254.3C814 254 857 256 878.5 257L900 258L900 301L878.5 301C857 301 814 301 771.2 301C728.3 301 685.7 301 642.8 301C600 301 557 301 514.2 301C471.3 301 428.7 301 385.8 301C343 301 300 301 257.2 301C214.3 301 171.7 301 128.8 301C86 301 43 301 21.5 301L0 301Z" fill="#112849"></path><path d="M0 278L21.5 277.2C43 276.3 86 274.7 128.8 275C171.7 275.3 214.3 277.7 257.2 277.8C300 278 343 276 385.8 273.3C428.7 270.7 471.3 267.3 514.2 264.3C557 261.3 600 258.7 642.8 261.8C685.7 265 728.3 274 771.2 278.2C814 282.3 857 281.7 878.5 281.3L900 281L900 301L878.5 301C857 301 814 301 771.2 301C728.3 301 685.7 301 642.8 301C600 301 557 301 514.2 301C471.3 301 428.7 301 385.8 301C343 301 300 301 257.2 301C214.3 301 171.7 301 128.8 301C86 301 43 301 21.5 301L0 301Z" fill="#131e30"></path></svg>