<svg id="visual" viewBox="0 0 900 200" width="900" height="200" xmlns="http://www.w3.org/2000/svg" xmlns:xlink="http://www.w3.org/1999/xlink" version="1.1"><rect x="0" y="0" width="900" height="200" fill="#000000"></rect><path d="M0 154L21.5 155.8C43 157.7 86 161.3 128.8 155C171.7 148.7 214.3 132.3 257.2 130.2C300 128 343 140 385.8 145.2C428.7 150.3 471.3 148.7 514.2 141.2C557 133.7 600 120.3 642.8 119.7C685.7 119 728.3 131 771.2 131C814 131 857 119 878.5 113L900 107L900 0L878.5 0C857 0 814 0 771.2 0C728.3 0 685.7 0 642.8 0C600 0 557 0 514.2 0C471.3 0 428.7 0 385.8 0C343 0 300 0 257.2 0C214.3 0 171.7 0 128.8 0C86 0 43 0 21.5 0L0 0Z" fill="#7b91f2"></path><path d="M0 125L21.5 123.7C43 122.3 86 119.7 128.8 116.3C171.7 113 214.3 109 257.2 105.2C300 101.3 343 97.7 385.8 95.7C428.7 93.7 471.3 93.3 514.2 91C557 88.7 600 84.3 642.8 89.7C685.7 95 728.3 110 771.2 118.7C814 127.3 857 129.7 878.5 130.8L900 132L900 0L878.5 0C857 0 814 0 771.2 0C728.3 0 685.7 0 642.8 0C600 0 557 0 514.2 0C471.3 0 428.7 0 385.8 0C343 0 300 0 257.2 0C214.3 0 171.7 0 128.8 0C86 0 43 0 21.5 0L0 0Z" fill="#5d79ed"></path><path d="M0 95L21.5 93.7C43 92.3 86 89.7 128.8 86.5C171.7 83.3 214.3 79.7 257.2 82.3C300 85 343 94 385.8 95.3C428.7 96.7 471.3 90.3 514.2 85.3C557 80.3 600 76.7 642.8 77.2C685.7 77.7 728.3 82.3 771.2 85C814 87.7 857 88.3 878.5 88.7L900 89L900 0L878.5 0C857 0 814 0 771.2 0C728.3 0 685.7 0 642.8 0C600 0 557 0 514.2 0C471.3 0 428.7 0 385.8 0C343 0 300 0 257.2 0C214.3 0 171.7 0 128.8 0C86 0 43 0 21.5 0L0 0Z" fill="#3861e7"></path><path d="M0 42L21.5 42.8C43 43.7 86 45.3 128.8 44.7C171.7 44 214.3 41 257.2 44.3C300 47.7 343 57.3 385.8 61.7C428.7 66 471.3 65 514.2 62C557 59 600 54 642.8 54.3C685.7 54.7 728.3 60.3 771.2 64.7C814 69 857 72 878.5 73.5L900 75L900 0L878.5 0C857 0 814 0 771.2 0C728.3 0 685.7 0 642.8 0C600 0 557 0 514.2 0C471.3 0 428.7 0 385.8 0C343 0 300 0 257.2 0C214.3 0 171.7 0 128.8 0C86 0 43 0 21.5 0L0 0Z" fill="#2f53c9"></path><path d="M0 24L21.5 28C43 32 86 40 128.8 39.2C171.7 38.3 214.3 28.7 257.2 25C300 21.3 343 23.7 385.8 26.3C428.7 29 471.3 32 514.2 31.7C557 31.3 600 27.7 642.8 27.8C685.7 28 728.3 32 771.2 31.2C814 30.3 857 24.7 878.5 21.8L900 19L900 0L878.5 0C857 0 814 0 771.2 0C728.3 0 685.7 0 642.8 0C600 0 557 0 514.2 0C471.3 0 428.7 0 385.8 0C343 0 300 0 257.2 0C214.3 0 171.7 0 128.8 0C86 0 43 0 21.5 0L0 0Z" fill="#2746ab"></path></svg>