<svg id="visual" viewBox="0 0 900 200" width="900" height="200" xmlns="http://www.w3.org/2000/svg" xmlns:xlink="http://www.w3.org/1999/xlink" version="1.1"><rect x="0" y="0" width="900" height="200" fill="#000000"></rect><path d="M0 44L21.5 42.2C43 40.3 86 36.7 128.8 43C171.7 49.3 214.3 65.7 257.2 67.8C300 70 343 58 385.8 52.8C428.7 47.7 471.3 49.3 514.2 56.8C557 64.3 600 77.7 642.8 78.3C685.7 79 728.3 67 771.2 67C814 67 857 79 878.5 85L900 91L900 201L878.5 201C857 201 814 201 771.2 201C728.3 201 685.7 201 642.8 201C600 201 557 201 514.2 201C471.3 201 428.7 201 385.8 201C343 201 300 201 257.2 201C214.3 201 171.7 201 128.8 201C86 201 43 201 21.5 201L0 201Z" fill="#7b91f2"></path><path d="M0 73L21.5 74.3C43 75.7 86 78.3 128.8 81.7C171.7 85 214.3 89 257.2 92.8C300 96.7 343 100.3 385.8 102.3C428.7 104.3 471.3 104.7 514.2 107C557 109.3 600 113.7 642.8 108.3C685.7 103 728.3 88 771.2 79.3C814 70.7 857 68.3 878.5 67.2L900 66L900 201L878.5 201C857 201 814 201 771.2 201C728.3 201 685.7 201 642.8 201C600 201 557 201 514.2 201C471.3 201 428.7 201 385.8 201C343 201 300 201 257.2 201C214.3 201 171.7 201 128.8 201C86 201 43 201 21.5 201L0 201Z" fill="#5d79ed"></path><path d="M0 103L21.5 104.3C43 105.7 86 108.3 128.8 111.5C171.7 114.7 214.3 118.3 257.2 115.7C300 113 343 104 385.8 102.7C428.7 101.3 471.3 107.7 514.2 112.7C557 117.7 600 121.3 642.8 120.8C685.7 120.3 728.3 115.7 771.2 113C814 110.3 857 109.7 878.5 109.3L900 109L900 201L878.5 201C857 201 814 201 771.2 201C728.3 201 685.7 201 642.8 201C600 201 557 201 514.2 201C471.3 201 428.7 201 385.8 201C343 201 300 201 257.2 201C214.3 201 171.7 201 128.8 201C86 201 43 201 21.5 201L0 201Z" fill="#3861e7"></path><path d="M0 156L21.5 155.2C43 154.3 86 152.7 128.8 153.5C171.7 154.3 214.3 157.7 257.2 154.3C300 151 343 141 385.8 136.5C428.7 132 471.3 133 514.2 136C557 139 600 144 642.8 143.7C685.7 143.3 728.3 137.7 771.2 133.3C814 129 857 126 878.5 124.5L900 123L900 201L878.5 201C857 201 814 201 771.2 201C728.3 201 685.7 201 642.8 201C600 201 557 201 514.2 201C471.3 201 428.7 201 385.8 201C343 201 300 201 257.2 201C214.3 201 171.7 201 128.8 201C86 201 43 201 21.5 201L0 201Z" fill="#2f53c9"></path><path d="M0 174L21.5 170C43 166 86 158 128.8 158.8C171.7 159.7 214.3 169.3 257.2 173C300 176.7 343 174.3 385.8 171.7C428.7 169 471.3 166 514.2 166.3C557 166.7 600 170.3 642.8 170.2C685.7 170 728.3 166 771.2 166.8C814 167.7 857 173.3 878.5 176.2L900 179L900 201L878.5 201C857 201 814 201 771.2 201C728.3 201 685.7 201 642.8 201C600 201 557 201 514.2 201C471.3 201 428.7 201 385.8 201C343 201 300 201 257.2 201C214.3 201 171.7 201 128.8 201C86 201 43 201 21.5 201L0 201Z" fill="#2746ab"></path></svg>