<svg id="visual" viewBox="0 0 900 300" width="900" height="300" xmlns="http://www.w3.org/2000/svg" xmlns:xlink="http://www.w3.org/1999/xlink" version="1.1"><rect x="0" y="0" width="900" height="300" fill="#ffffff"></rect><path d="M0 75L21.5 82.7C43 90.3 86 105.7 128.8 102.2C171.7 98.7 214.3 76.3 257.2 77.8C300 79.3 343 104.7 385.8 105.8C428.7 107 471.3 84 514.2 80.7C557 77.3 600 93.7 642.8 104.8C685.7 116 728.3 122 771.2 125.5C814 129 857 130 878.5 130.5L900 131L900 301L878.5 301C857 301 814 301 771.2 301C728.3 301 685.7 301 642.8 301C600 301 557 301 514.2 301C471.3 301 428.7 301 385.8 301C343 301 300 301 257.2 301C214.3 301 171.7 301 128.8 301C86 301 43 301 21.5 301L0 301Z" fill="#7b91f2"></path><path d="M0 145L21.5 147.5C43 150 86 155 128.8 147.3C171.7 139.7 214.3 119.3 257.2 112.5C300 105.7 343 112.3 385.8 111.5C428.7 110.7 471.3 102.3 514.2 107.7C557 113 600 132 642.8 145.3C685.7 158.7 728.3 166.3 771.2 167.5C814 168.7 857 163.3 878.5 160.7L900 158L900 301L878.5 301C857 301 814 301 771.2 301C728.3 301 685.7 301 642.8 301C600 301 557 301 514.2 301C471.3 301 428.7 301 385.8 301C343 301 300 301 257.2 301C214.3 301 171.7 301 128.8 301C86 301 43 301 21.5 301L0 301Z" fill="#5d79ed"></path><path d="M0 164L21.5 163.8C43 163.7 86 163.3 128.8 165.8C171.7 168.3 214.3 173.7 257.2 170.7C300 167.7 343 156.3 385.8 149.8C428.7 143.3 471.3 141.7 514.2 148C557 154.3 600 168.7 642.8 170C685.7 171.3 728.3 159.7 771.2 157.8C814 156 857 164 878.5 168L900 172L900 301L878.5 301C857 301 814 301 771.2 301C728.3 301 685.7 301 642.8 301C600 301 557 301 514.2 301C471.3 301 428.7 301 385.8 301C343 301 300 301 257.2 301C214.3 301 171.7 301 128.8 301C86 301 43 301 21.5 301L0 301Z" fill="#3861e7"></path><path d="M0 181L21.5 187.3C43 193.7 86 206.3 128.8 209.7C171.7 213 214.3 207 257.2 209C300 211 343 221 385.8 221.2C428.7 221.3 471.3 211.7 514.2 210.8C557 210 600 218 642.8 222C685.7 226 728.3 226 771.2 223.2C814 220.3 857 214.7 878.5 211.8L900 209L900 301L878.5 301C857 301 814 301 771.2 301C728.3 301 685.7 301 642.8 301C600 301 557 301 514.2 301C471.3 301 428.7 301 385.8 301C343 301 300 301 257.2 301C214.3 301 171.7 301 128.8 301C86 301 43 301 21.5 301L0 301Z" fill="#2f53c9"></path><path d="M0 269L21.5 263C43 257 86 245 128.8 244.8C171.7 244.7 214.3 256.3 257.2 255.8C300 255.3 343 242.7 385.8 242.5C428.7 242.3 471.3 254.7 514.2 257.7C557 260.7 600 254.3 642.8 251.2C685.7 248 728.3 248 771.2 245.2C814 242.3 857 236.7 878.5 233.8L900 231L900 301L878.5 301C857 301 814 301 771.2 301C728.3 301 685.7 301 642.8 301C600 301 557 301 514.2 301C471.3 301 428.7 301 385.8 301C343 301 300 301 257.2 301C214.3 301 171.7 301 128.8 301C86 301 43 301 21.5 301L0 301Z" fill="#2746ab"></path></svg>