<svg id="visual" viewBox="0 0 900 300" width="900" height="300" xmlns="http://www.w3.org/2000/svg" xmlns:xlink="http://www.w3.org/1999/xlink" version="1.1"><rect x="0" y="0" width="900" height="300" fill="#0C1421"></rect><path d="M0 107L21.5 113.8C43 120.7 86 134.3 128.8 142.2C171.7 150 214.3 152 257.2 148.2C300 144.3 343 134.7 385.8 131.5C428.7 128.3 471.3 131.7 514.2 138C557 144.3 600 153.7 642.8 158.3C685.7 163 728.3 163 771.2 165.2C814 167.3 857 171.7 878.5 173.8L900 176L900 301L878.5 301C857 301 814 301 771.2 301C728.3 301 685.7 301 642.8 301C600 301 557 301 514.2 301C471.3 301 428.7 301 385.8 301C343 301 300 301 257.2 301C214.3 301 171.7 301 128.8 301C86 301 43 301 21.5 301L0 301Z" fill="#5d79ed"></path><path d="M0 173L21.5 173.5C43 174 86 175 128.8 172.8C171.7 170.7 214.3 165.3 257.2 161.5C300 157.7 343 155.3 385.8 159.8C428.7 164.3 471.3 175.7 514.2 174.7C557 173.7 600 160.3 642.8 152.2C685.7 144 728.3 141 771.2 144.2C814 147.3 857 156.7 878.5 161.3L900 166L900 301L878.5 301C857 301 814 301 771.2 301C728.3 301 685.7 301 642.8 301C600 301 557 301 514.2 301C471.3 301 428.7 301 385.8 301C343 301 300 301 257.2 301C214.3 301 171.7 301 128.8 301C86 301 43 301 21.5 301L0 301Z" fill="#506cdc"></path><path d="M0 173L21.5 179.3C43 185.7 86 198.3 128.8 206.3C171.7 214.3 214.3 217.7 257.2 211.5C300 205.3 343 189.7 385.8 182.8C428.7 176 471.3 178 514.2 185.7C557 193.3 600 206.7 642.8 205.8C685.7 205 728.3 190 771.2 186.8C814 183.7 857 192.3 878.5 196.7L900 201L900 301L878.5 301C857 301 814 301 771.2 301C728.3 301 685.7 301 642.8 301C600 301 557 301 514.2 301C471.3 301 428.7 301 385.8 301C343 301 300 301 257.2 301C214.3 301 171.7 301 128.8 301C86 301 43 301 21.5 301L0 301Z" fill="#435fcc"></path><path d="M0 253L21.5 252.7C43 252.3 86 251.7 128.8 244C171.7 236.3 214.3 221.7 257.2 217C300 212.3 343 217.7 385.8 222C428.7 226.3 471.3 229.7 514.2 228.3C557 227 600 221 642.8 223.8C685.7 226.7 728.3 238.3 771.2 244.5C814 250.7 857 251.3 878.5 251.7L900 252L900 301L878.5 301C857 301 814 301 771.2 301C728.3 301 685.7 301 642.8 301C600 301 557 301 514.2 301C471.3 301 428.7 301 385.8 301C343 301 300 301 257.2 301C214.3 301 171.7 301 128.8 301C86 301 43 301 21.5 301L0 301Z" fill="#3652bb"></path><path d="M0 270L21.5 270.7C43 271.3 86 272.7 128.8 273.3C171.7 274 214.3 274 257.2 271.5C300 269 343 264 385.8 261.8C428.7 259.7 471.3 260.3 514.2 260.3C557 260.3 600 259.7 642.8 257.2C685.7 254.7 728.3 250.3 771.2 247.8C814 245.3 857 244.7 878.5 244.3L900 244L900 301L878.5 301C857 301 814 301 771.2 301C728.3 301 685.7 301 642.8 301C600 301 557 301 514.2 301C471.3 301 428.7 301 385.8 301C343 301 300 301 257.2 301C214.3 301 171.7 301 128.8 301C86 301 43 301 21.5 301L0 301Z" fill="#2746ab"></path></svg>